<svg width="114" height="45" viewBox="0 0 114 45" fill="none" xmlns="http://www.w3.org/2000/svg">
<path fill-rule="evenodd" clip-rule="evenodd" d="M73.9938 22.6C72.9058 21.16 71.4338 20.136 69.5778 19.528C70.9218 18.824 71.9778 17.832 72.7458 16.552C73.5138 15.272 73.8978 13.8 73.8978 12.136C73.8978 9.41603 72.8258 7.28802 70.6818 5.75203C68.5378 4.18402 65.4818 3.40002 61.5138 3.40002H45.7698V37H62.4738C66.7618 37 70.0258 36.216 72.2658 34.648C74.5058 33.048 75.6258 30.792 75.6258 27.88C75.6258 25.768 75.0818 24.008 73.9938 22.6ZM52.0098 17.56V8.29602H60.8418C63.0178 8.29602 64.6818 8.69602 65.8338 9.49603C67.0178 10.264 67.6098 11.416 67.6098 12.952C67.6098 14.456 67.0178 15.608 65.8338 16.408C64.6818 17.176 63.0178 17.56 60.8418 17.56H52.0098ZM69.3378 27.256C69.3378 30.488 66.9218 32.104 62.0898 32.104H52.0098V22.408H62.0898C66.9218 22.408 69.3378 24.024 69.3378 27.256ZM88.5254 28.408L93.8534 22.936L99.4804 29.611L102.699 24.216L98.0294 18.424L112.141 3.40002H105.133L88.5254 20.632V3.40002H82.2854V37H88.5254V28.408ZM105.573 27.7815L102.409 33.0853L105.709 37H113.005L105.573 27.7815Z" fill="#F7F0D3"/>
<path d="M67.9851 16.3423L64.3716 21.1355L48 8.79332L51.6136 4.00005L67.9851 16.3423Z" fill="#F7F0D3"/>
<path d="M69.6742 30.5743L65.9944 35.3134L49.8004 22.7391L53.4803 18L69.6742 30.5743Z" fill="#F7F0D3"/>
<line x1="25.0822" y1="34.5068" x2="31.0822" y2="35.5068" stroke="black"/>
<line x1="18.8768" y1="4.51917" x2="35.8768" y2="35.5192" stroke="black" stroke-width="2"/>
<path d="M7.22656 38C9.16406 37.625 10.6328 36.5312 11.6328 34.7188L11.6797 34.5312V6.05469L11.6328 5.86719C10.6328 4.05469 9.16406 2.96094 7.22656 2.58594H20.7734C18.6797 3.02344 17.2109 4.10938 16.3672 5.84375L16.3203 6.05469V34.5312L16.3672 34.7422C17.2109 36.4766 18.6797 37.5625 20.7734 38H7.22656Z" fill="black"/>
<path d="M29.2266 38C31.1641 37.625 32.6328 36.5312 33.6328 34.7188L33.6797 34.5312V6.05469L33.6328 5.86719C32.6328 4.05469 31.1641 2.96094 29.2266 2.58594H42.7734C40.6797 3.02344 39.2109 4.10938 38.3672 5.84375L38.3203 6.05469V34.5312L38.3672 34.7422C39.2109 36.4766 40.6797 37.5625 42.7734 38H29.2266Z" fill="black"/>
<line x1="14.4384" y1="4.75958" x2="31.4384" y2="35.7596" stroke="black"/>
<line x1="19.4129" y1="4.98209" x2="25.0462" y2="7.27681" stroke="black" stroke-width="2"/>
</svg>
