<svg width="1440" height="365" viewBox="0 0 1440 365" fill="none" xmlns="http://www.w3.org/2000/svg">
<path fill-rule="evenodd" clip-rule="evenodd" d="M1440 364H-1V7.98434C17.2955 12.4937 39.3113 15.1244 63 15.1244C78.5851 15.1244 93.4462 13.9857 107 11.9225C120.554 13.9857 135.415 15.1244 151 15.1244C156.929 15.1244 162.753 14.9596 168.441 14.6418C188.765 26.5717 224.859 34.5063 266 34.5063C307.141 34.5063 343.235 26.5717 363.559 14.6418C369.247 14.9596 375.071 15.1244 381 15.1244C415.118 15.1244 445.766 9.6673 466.827 1C479.61 2.80087 493.491 3.78772 508 3.78772C515.643 3.78772 523.111 3.51389 530.337 2.99149C551.094 10.4949 579.575 15.1244 611 15.1244C624.449 15.1244 637.358 14.2765 649.353 12.7183C668.965 25.7113 706.686 34.5063 750 34.5063C791.141 34.5063 827.235 26.5717 847.559 14.6418C852.553 14.9208 857.652 15.0819 862.835 15.117C880.997 19.8177 903.032 22.6352 926.835 22.7967C944.997 27.4973 967.032 30.3149 990.835 30.4763C1009.55 35.3192 1032.37 38.1633 1057 38.1633C1084.06 38.1633 1108.93 34.7318 1128.57 28.989C1138.26 29.9634 1148.47 30.4836 1159 30.4836C1186.06 30.4836 1210.93 27.0521 1230.57 21.3094C1240.26 22.2837 1250.47 22.804 1261 22.804C1274.99 22.804 1288.4 21.886 1300.81 20.205C1320.97 26.6094 1347.25 30.4836 1376 30.4836C1399.69 30.4836 1421.7 27.853 1440 23.3436V364Z" fill="#C62027"/>
<path fill-rule="evenodd" clip-rule="evenodd" d="M1440 364H-1V7.98434C17.2955 12.4937 39.3113 15.1244 63 15.1244C78.5851 15.1244 93.4462 13.9857 107 11.9225C120.554 13.9857 135.415 15.1244 151 15.1244C156.929 15.1244 162.753 14.9596 168.441 14.6418C188.765 26.5717 224.859 34.5063 266 34.5063C307.141 34.5063 343.235 26.5717 363.559 14.6418C369.247 14.9596 375.071 15.1244 381 15.1244C415.118 15.1244 445.766 9.6673 466.827 1C479.61 2.80087 493.491 3.78772 508 3.78772C515.643 3.78772 523.111 3.51389 530.337 2.99149C551.094 10.4949 579.575 15.1244 611 15.1244C624.449 15.1244 637.358 14.2765 649.353 12.7183C668.965 25.7113 706.686 34.5063 750 34.5063C791.141 34.5063 827.235 26.5717 847.559 14.6418C852.553 14.9208 857.652 15.0819 862.835 15.117C880.997 19.8177 903.032 22.6352 926.835 22.7967C944.997 27.4973 967.032 30.3149 990.835 30.4763C1009.55 35.3192 1032.37 38.1633 1057 38.1633C1084.06 38.1633 1108.93 34.7318 1128.57 28.989C1138.26 29.9634 1148.47 30.4836 1159 30.4836C1186.06 30.4836 1210.93 27.0521 1230.57 21.3094C1240.26 22.2837 1250.47 22.804 1261 22.804C1274.99 22.804 1288.4 21.886 1300.81 20.205C1320.97 26.6094 1347.25 30.4836 1376 30.4836C1399.69 30.4836 1421.7 27.853 1440 23.3436V364Z" fill="url(#paint0_linear)"/>
<path d="M-1 364V364.5H-1.5V364H-1ZM1440 364H1440.5V364.5H1440V364ZM-1 7.98434H-1.5V7.34614L-0.880344 7.49887L-1 7.98434ZM107 11.9225L106.925 11.4281L107 11.4167L107.075 11.4281L107 11.9225ZM168.441 14.6418L168.413 14.1425L168.563 14.1341L168.694 14.2106L168.441 14.6418ZM363.559 14.6418L363.306 14.2106L363.437 14.1341L363.587 14.1425L363.559 14.6418ZM466.827 1L466.637 0.537624L466.762 0.485946L466.897 0.504889L466.827 1ZM530.337 2.99149L530.301 2.49279L530.407 2.48512L530.507 2.52126L530.337 2.99149ZM649.353 12.7183L649.289 12.2225L649.474 12.1985L649.63 12.3015L649.353 12.7183ZM847.559 14.6418L847.306 14.2106L847.437 14.1341L847.587 14.1425L847.559 14.6418ZM862.835 15.117L862.838 14.617L862.9 14.6175L862.96 14.633L862.835 15.117ZM926.835 22.7967L926.838 22.2967L926.9 22.2971L926.96 22.3126L926.835 22.7967ZM990.835 30.4763L990.838 29.9763L990.9 29.9767L990.96 29.9923L990.835 30.4763ZM1128.57 28.989L1128.43 28.5091L1128.52 28.4818L1128.62 28.4915L1128.57 28.989ZM1230.57 21.3094L1230.43 20.8295L1230.52 20.8021L1230.62 20.8119L1230.57 21.3094ZM1300.81 20.205L1300.74 19.7095L1300.85 19.6944L1300.96 19.7284L1300.81 20.205ZM1440 23.3436L1439.88 22.8582L1440.5 22.7054V23.3436H1440ZM-1 363.5H1440V364.5H-1V363.5ZM-0.5 7.98434V364H-1.5V7.98434H-0.5ZM63 15.6244C39.2763 15.6244 17.2199 12.99 -1.11966 8.46982L-0.880344 7.49887C17.3711 11.9974 39.3463 14.6244 63 14.6244V15.6244ZM107.075 12.4168C93.4952 14.484 78.609 15.6244 63 15.6244V14.6244C78.5612 14.6244 93.3971 13.4874 106.925 11.4281L107.075 12.4168ZM151 15.6244C135.391 15.6244 120.505 14.484 106.925 12.4168L107.075 11.4281C120.603 13.4874 135.439 14.6244 151 14.6244V15.6244ZM168.469 15.141C162.772 15.4593 156.938 15.6244 151 15.6244V14.6244C156.92 14.6244 162.735 14.4598 168.413 14.1425L168.469 15.141ZM266 35.0063C224.817 35.0063 188.62 27.0667 168.188 15.073L168.694 14.2106C188.909 26.0767 224.902 34.0063 266 34.0063V35.0063ZM363.812 15.073C343.38 27.0667 307.183 35.0063 266 35.0063V34.0063C307.098 34.0063 343.091 26.0767 363.306 14.2106L363.812 15.073ZM381 15.6244C375.062 15.6244 369.228 15.4593 363.531 15.141L363.587 14.1425C369.265 14.4598 375.08 14.6244 381 14.6244V15.6244ZM467.017 1.46238C445.879 10.1614 415.163 15.6244 381 15.6244V14.6244C415.074 14.6244 445.653 9.17321 466.637 0.537624L467.017 1.46238ZM508 4.28772C493.469 4.28772 479.564 3.29938 466.757 1.49511L466.897 0.504889C479.656 2.30237 493.514 3.28772 508 3.28772V4.28772ZM530.373 3.49018C523.135 4.01346 515.655 4.28772 508 4.28772V3.28772C515.631 3.28772 523.087 3.01431 530.301 2.49279L530.373 3.49018ZM611 15.6244C579.532 15.6244 550.991 10.9893 530.167 3.46171L530.507 2.52126C551.197 10.0004 579.618 14.6244 611 14.6244V15.6244ZM649.418 13.2142C637.4 14.7752 624.469 15.6244 611 15.6244V14.6244C624.428 14.6244 637.316 13.7778 649.289 12.2225L649.418 13.2142ZM750 35.0063C706.647 35.0063 668.809 26.2076 649.077 13.1351L649.63 12.3015C669.121 25.215 706.726 34.0063 750 34.0063V35.0063ZM847.812 15.073C827.38 27.0667 791.183 35.0063 750 35.0063V34.0063C791.098 34.0063 827.091 26.0767 847.306 14.2106L847.812 15.073ZM862.831 15.617C857.64 15.5818 852.533 15.4205 847.531 15.141L847.587 14.1425C852.573 14.4211 857.663 14.5819 862.838 14.617L862.831 15.617ZM926.831 23.2966C902.994 23.135 880.917 20.3134 862.709 15.6011L862.96 14.633C881.077 19.3219 903.071 22.1355 926.838 22.2967L926.831 23.2966ZM990.831 30.9763C966.993 30.8146 944.917 27.993 926.709 23.2807L926.96 22.3126C945.077 27.0015 967.071 29.8151 990.838 29.9763L990.831 30.9763ZM1057 38.6633C1032.33 38.6633 1009.47 35.8153 990.709 30.9604L990.96 29.9923C1009.63 34.8231 1032.41 37.6633 1057 37.6633V38.6633ZM1128.71 29.4689C1109.02 35.2272 1084.09 38.6633 1057 38.6633V37.6633C1084.02 37.6633 1108.84 34.2363 1128.43 28.5091L1128.71 29.4689ZM1159 30.9836C1148.45 30.9836 1138.23 30.4626 1128.52 29.4865L1128.62 28.4915C1138.29 29.4642 1148.48 29.9836 1159 29.9836V30.9836ZM1230.71 21.7893C1211.02 27.5475 1186.09 30.9836 1159 30.9836V29.9836C1186.02 29.9836 1210.84 26.5566 1230.43 20.8295L1230.71 21.7893ZM1261 23.304C1250.45 23.304 1240.23 22.7829 1230.52 21.8068L1230.62 20.8119C1240.29 21.7845 1250.48 22.304 1261 22.304V23.304ZM1300.87 20.7004C1288.45 22.3846 1275.02 23.304 1261 23.304V22.304C1274.97 22.304 1288.36 21.3873 1300.74 19.7095L1300.87 20.7004ZM1300.96 19.7284C1321.06 26.1144 1347.29 29.9836 1376 29.9836V30.9836C1347.21 30.9836 1320.88 27.1044 1300.66 20.6815L1300.96 19.7284ZM1376 29.9836C1399.65 29.9836 1421.63 27.3566 1439.88 22.8582L1440.12 23.8291C1421.78 28.3493 1399.72 30.9836 1376 30.9836V29.9836ZM1439.5 364V23.3436H1440.5V364H1439.5Z" fill="black"/>
<defs>
<linearGradient id="paint0_linear" x1="757" y1="-221.498" x2="754.431" y2="235.343" gradientUnits="userSpaceOnUse">
<stop stop-color="#F7F0D3"/>
<stop offset="1" stop-color="white" stop-opacity="0"/>
</linearGradient>
</defs>
</svg>
