<svg width="1440" height="1024" viewBox="0 0 1440 1024" fill="none" xmlns="http://www.w3.org/2000/svg">
<path fill-rule="evenodd" clip-rule="evenodd" d="M1440 -97H-1V1002.06C17.2955 988.141 39.3113 980.02 63 980.02C78.5851 980.02 93.4462 983.535 107 989.904C120.554 983.535 135.415 980.02 151 980.02C156.929 980.02 162.753 980.528 168.441 981.509C188.765 944.68 224.859 920.185 266 920.185C307.141 920.185 343.235 944.68 363.559 981.509C369.247 980.528 375.071 980.02 381 980.02C415.118 980.02 445.766 996.866 466.827 1023.62C479.61 1018.06 493.491 1015.02 508 1015.02C515.643 1015.02 523.111 1015.86 530.337 1017.48C551.094 994.311 579.575 980.02 611 980.02C624.449 980.02 637.358 982.637 649.353 987.447C668.965 947.336 706.686 920.185 750 920.185C791.141 920.185 827.235 944.68 847.559 981.509C852.553 980.648 857.652 980.151 862.834 980.042C880.997 965.531 903.032 956.833 926.835 956.334C944.997 941.823 967.032 933.125 990.835 932.626C1009.55 917.676 1032.37 908.896 1057 908.896C1084.06 908.896 1108.93 919.489 1128.57 937.218C1138.26 934.21 1148.47 932.604 1159 932.604C1186.06 932.604 1210.93 943.197 1230.57 960.926C1240.26 957.918 1250.47 956.312 1261 956.312C1274.99 956.312 1288.4 959.146 1300.81 964.335C1320.97 944.564 1347.25 932.604 1376 932.604C1399.69 932.604 1421.7 940.725 1440 954.646V-97Z" fill="#C62027"/>
<path fill-rule="evenodd" clip-rule="evenodd" d="M1440 -97H-1V1002.06C17.2955 988.141 39.3113 980.02 63 980.02C78.5851 980.02 93.4462 983.535 107 989.904C120.554 983.535 135.415 980.02 151 980.02C156.929 980.02 162.753 980.528 168.441 981.509C188.765 944.68 224.859 920.185 266 920.185C307.141 920.185 343.235 944.68 363.559 981.509C369.247 980.528 375.071 980.02 381 980.02C415.118 980.02 445.766 996.866 466.827 1023.62C479.61 1018.06 493.491 1015.02 508 1015.02C515.643 1015.02 523.111 1015.86 530.337 1017.48C551.094 994.311 579.575 980.02 611 980.02C624.449 980.02 637.358 982.637 649.353 987.447C668.965 947.336 706.686 920.185 750 920.185C791.141 920.185 827.235 944.68 847.559 981.509C852.553 980.648 857.652 980.151 862.834 980.042C880.997 965.531 903.032 956.833 926.835 956.334C944.997 941.823 967.032 933.125 990.835 932.626C1009.55 917.676 1032.37 908.896 1057 908.896C1084.06 908.896 1108.93 919.489 1128.57 937.218C1138.26 934.21 1148.47 932.604 1159 932.604C1186.06 932.604 1210.93 943.197 1230.57 960.926C1240.26 957.918 1250.47 956.312 1261 956.312C1274.99 956.312 1288.4 959.146 1300.81 964.335C1320.97 944.564 1347.25 932.604 1376 932.604C1399.69 932.604 1421.7 940.725 1440 954.646V-97Z" fill="url(#paint0_linear)"/>
<path d="M-1 -97V-97.5H-1.5V-97H-1ZM1440 -97H1440.5V-97.5H1440V-97ZM-1 1002.06H-1.5V1003.07L-0.697235 1002.46L-1 1002.06ZM107 989.904L106.787 990.357L107 990.457L107.213 990.357L107 989.904ZM168.441 981.509L168.356 982.002L168.706 982.063L168.878 981.751L168.441 981.509ZM363.559 981.509L363.122 981.751L363.294 982.063L363.644 982.002L363.559 981.509ZM466.827 1023.62L466.434 1023.93L466.673 1024.24L467.026 1024.08L466.827 1023.62ZM530.337 1017.48L530.228 1017.96L530.514 1018.03L530.709 1017.81L530.337 1017.48ZM649.353 987.447L649.167 987.911L649.599 988.084L649.803 987.667L649.353 987.447ZM847.559 981.509L847.122 981.751L847.294 982.063L847.644 982.002L847.559 981.509ZM862.834 980.042L862.845 980.542L863.014 980.539L863.147 980.433L862.834 980.042ZM926.835 956.334L926.845 956.834L927.014 956.831L927.147 956.725L926.835 956.334ZM990.835 932.626L990.845 933.126L991.014 933.123L991.147 933.017L990.835 932.626ZM1128.57 937.218L1128.23 937.589L1128.45 937.779L1128.72 937.695L1128.57 937.218ZM1230.57 960.926L1230.23 961.297L1230.45 961.487L1230.72 961.403L1230.57 960.926ZM1300.81 964.335L1300.61 964.796L1300.92 964.924L1301.16 964.692L1300.81 964.335ZM1440 954.646L1439.7 955.044L1440.5 955.654V954.646H1440ZM-1 -96.5H1440V-97.5H-1V-96.5ZM-0.5 1002.06V-97H-1.5V1002.06H-0.5ZM63 979.52C39.1936 979.52 17.0729 987.682 -1.30277 1001.66L-0.697235 1002.46C17.5181 988.6 39.429 980.52 63 980.52V979.52ZM107.213 989.452C93.5949 983.052 78.6615 979.52 63 979.52V980.52C78.5088 980.52 93.2974 984.017 106.787 990.357L107.213 989.452ZM151 979.52C135.339 979.52 120.405 983.052 106.787 989.452L107.213 990.357C120.703 984.017 135.491 980.52 151 980.52V979.52ZM168.526 981.017C162.81 980.031 156.958 979.52 151 979.52V980.52C156.9 980.52 162.696 981.026 168.356 982.002L168.526 981.017ZM266 919.685C224.649 919.685 188.4 944.305 168.003 981.268L168.878 981.751C189.129 945.055 225.07 920.685 266 920.685V919.685ZM363.997 981.268C343.6 944.305 307.351 919.685 266 919.685V920.685C306.93 920.685 342.871 945.055 363.122 981.751L363.997 981.268ZM381 979.52C375.042 979.52 369.19 980.031 363.474 981.017L363.644 982.002C369.304 981.026 375.1 980.52 381 980.52V979.52ZM467.22 1023.31C446.077 996.452 415.291 979.52 381 979.52V980.52C414.946 980.52 445.456 997.28 466.434 1023.93L467.22 1023.31ZM508 1014.52C493.42 1014.52 479.471 1017.58 466.627 1023.16L467.026 1024.08C479.749 1018.55 493.562 1015.52 508 1015.52V1014.52ZM530.446 1016.99C523.185 1015.37 515.68 1014.52 508 1014.52V1015.52C515.606 1015.52 523.038 1016.36 530.228 1017.96L530.446 1016.99ZM611 979.52C579.417 979.52 550.805 993.884 529.965 1017.14L530.709 1017.81C551.383 994.738 579.733 980.52 611 980.52V979.52ZM649.539 986.983C637.487 982.15 624.514 979.52 611 979.52V980.52C624.383 980.52 637.229 983.124 649.167 987.911L649.539 986.983ZM750 919.685C706.464 919.685 668.585 946.975 648.904 987.228L649.803 987.667C669.345 947.698 706.908 920.685 750 920.685V919.685ZM847.997 981.268C827.6 944.305 791.351 919.685 750 919.685V920.685C790.93 920.685 826.871 945.055 847.122 981.751L847.997 981.268ZM862.824 979.542C857.616 979.651 852.492 980.151 847.474 981.017L847.644 982.002C852.613 981.145 857.687 980.65 862.845 980.542L862.824 979.542ZM926.824 955.834C902.903 956.335 880.764 965.077 862.522 979.652L863.147 980.433C881.23 965.984 903.161 957.33 926.845 956.834L926.824 955.834ZM990.824 932.126C966.903 932.627 944.764 941.369 926.522 955.944L927.147 956.725C945.23 942.276 967.161 933.622 990.845 933.126L990.824 932.126ZM1057 908.396C1032.25 908.396 1009.32 917.22 990.522 932.236L991.147 933.017C1009.78 918.131 1032.49 909.396 1057 909.396V908.396ZM1128.9 936.846C1109.18 919.043 1084.19 908.396 1057 908.396V909.396C1083.92 909.396 1108.68 919.935 1128.23 937.589L1128.9 936.846ZM1159 932.104C1148.41 932.104 1138.16 933.717 1128.42 936.74L1128.72 937.695C1138.36 934.702 1148.52 933.104 1159 933.104V932.104ZM1230.9 960.554C1211.18 942.751 1186.19 932.104 1159 932.104V933.104C1185.92 933.104 1210.68 943.643 1230.23 961.297L1230.9 960.554ZM1261 955.812C1250.41 955.812 1240.16 957.425 1230.42 960.448L1230.72 961.403C1240.36 958.41 1250.52 956.812 1261 956.812V955.812ZM1301 963.874C1288.54 958.66 1275.06 955.812 1261 955.812V956.812C1274.93 956.812 1288.27 959.632 1300.61 964.796L1301 963.874ZM1301.16 964.692C1321.24 945.003 1347.4 933.104 1376 933.104V932.104C1347.11 932.104 1320.7 944.125 1300.46 963.978L1301.16 964.692ZM1376 933.104C1399.57 933.104 1421.48 941.184 1439.7 955.044L1440.3 954.248C1421.93 940.266 1399.81 932.104 1376 932.104V933.104ZM1439.5 -97V954.646H1440.5V-97H1439.5Z" fill="black"/>
<defs>
<linearGradient id="paint0_linear" x1="757" y1="1710.5" x2="732.525" y2="300.56" gradientUnits="userSpaceOnUse">
<stop stop-color="#F7F0D3"/>
<stop offset="1" stop-color="white" stop-opacity="0"/>
</linearGradient>
</defs>
</svg>
