<svg width="1440" height="1024" viewBox="0 0 1440 1024" fill="none" xmlns="http://www.w3.org/2000/svg">
<path fill-rule="evenodd" clip-rule="evenodd" d="M1440 0H-1V1099.06C17.2955 1085.14 39.3113 1077.02 63 1077.02C78.5851 1077.02 93.4462 1080.53 107 1086.9C120.554 1080.53 135.415 1077.02 151 1077.02C156.929 1077.02 162.753 1077.53 168.441 1078.51C188.765 1041.68 224.859 1017.19 266 1017.19C307.141 1017.19 343.235 1041.68 363.559 1078.51C369.247 1077.53 375.071 1077.02 381 1077.02C415.118 1077.02 445.766 1093.87 466.827 1120.62C479.61 1115.06 493.491 1112.02 508 1112.02C515.643 1112.02 523.111 1112.86 530.337 1114.48C551.094 1091.31 579.575 1077.02 611 1077.02C624.449 1077.02 637.358 1079.64 649.353 1084.45C668.965 1044.34 706.686 1017.19 750 1017.19C791.141 1017.19 827.235 1041.68 847.559 1078.51C852.553 1077.65 857.652 1077.15 862.834 1077.04C880.997 1062.53 903.032 1053.83 926.835 1053.33C944.997 1038.82 967.032 1030.12 990.835 1029.63C1009.55 1014.68 1032.37 1005.9 1057 1005.9C1084.06 1005.9 1108.93 1016.49 1128.57 1034.22C1138.26 1031.21 1148.47 1029.6 1159 1029.6C1186.06 1029.6 1210.93 1040.2 1230.57 1057.93C1240.26 1054.92 1250.47 1053.31 1261 1053.31C1274.99 1053.31 1288.4 1056.15 1300.81 1061.33C1320.97 1041.56 1347.25 1029.6 1376 1029.6C1399.69 1029.6 1421.7 1037.72 1440 1051.65V0Z" fill="#C62027"/>
<path fill-rule="evenodd" clip-rule="evenodd" d="M1440 0H-1V1099.06C17.2955 1085.14 39.3113 1077.02 63 1077.02C78.5851 1077.02 93.4462 1080.53 107 1086.9C120.554 1080.53 135.415 1077.02 151 1077.02C156.929 1077.02 162.753 1077.53 168.441 1078.51C188.765 1041.68 224.859 1017.19 266 1017.19C307.141 1017.19 343.235 1041.68 363.559 1078.51C369.247 1077.53 375.071 1077.02 381 1077.02C415.118 1077.02 445.766 1093.87 466.827 1120.62C479.61 1115.06 493.491 1112.02 508 1112.02C515.643 1112.02 523.111 1112.86 530.337 1114.48C551.094 1091.31 579.575 1077.02 611 1077.02C624.449 1077.02 637.358 1079.64 649.353 1084.45C668.965 1044.34 706.686 1017.19 750 1017.19C791.141 1017.19 827.235 1041.68 847.559 1078.51C852.553 1077.65 857.652 1077.15 862.834 1077.04C880.997 1062.53 903.032 1053.83 926.835 1053.33C944.997 1038.82 967.032 1030.12 990.835 1029.63C1009.55 1014.68 1032.37 1005.9 1057 1005.9C1084.06 1005.9 1108.93 1016.49 1128.57 1034.22C1138.26 1031.21 1148.47 1029.6 1159 1029.6C1186.06 1029.6 1210.93 1040.2 1230.57 1057.93C1240.26 1054.92 1250.47 1053.31 1261 1053.31C1274.99 1053.31 1288.4 1056.15 1300.81 1061.33C1320.97 1041.56 1347.25 1029.6 1376 1029.6C1399.69 1029.6 1421.7 1037.72 1440 1051.65V0Z" fill="url(#paint0_linear)"/>
<path d="M-1 0V-0.5H-1.5V0H-1ZM1440 0H1440.5V-0.5H1440V0ZM-1 1099.06H-1.5V1100.07L-0.697235 1099.46L-1 1099.06ZM107 1086.9L106.787 1087.36L107 1087.46L107.213 1087.36L107 1086.9ZM168.441 1078.51L168.356 1079L168.706 1079.06L168.878 1078.75L168.441 1078.51ZM363.559 1078.51L363.122 1078.75L363.294 1079.06L363.644 1079L363.559 1078.51ZM466.827 1120.62L466.434 1120.93L466.673 1121.24L467.026 1121.08L466.827 1120.62ZM530.337 1114.48L530.228 1114.96L530.514 1115.03L530.709 1114.81L530.337 1114.48ZM649.353 1084.45L649.167 1084.91L649.599 1085.08L649.803 1084.67L649.353 1084.45ZM847.559 1078.51L847.122 1078.75L847.294 1079.06L847.644 1079L847.559 1078.51ZM862.834 1077.04L862.845 1077.54L863.014 1077.54L863.147 1077.43L862.834 1077.04ZM926.835 1053.33L926.845 1053.83L927.014 1053.83L927.147 1053.72L926.835 1053.33ZM990.835 1029.63L990.845 1030.13L991.014 1030.12L991.147 1030.02L990.835 1029.63ZM1128.57 1034.22L1128.23 1034.59L1128.45 1034.78L1128.72 1034.7L1128.57 1034.22ZM1230.57 1057.93L1230.23 1058.3L1230.45 1058.49L1230.72 1058.4L1230.57 1057.93ZM1300.81 1061.33L1300.61 1061.8L1300.92 1061.92L1301.16 1061.69L1300.81 1061.33ZM1440 1051.65L1439.7 1052.04L1440.5 1052.65V1051.65H1440ZM-1 0.5H1440V-0.5H-1V0.5ZM-0.5 1099.06V0H-1.5V1099.06H-0.5ZM63 1076.52C39.1936 1076.52 17.0729 1084.68 -1.30277 1098.66L-0.697235 1099.46C17.5181 1085.6 39.429 1077.52 63 1077.52V1076.52ZM107.213 1086.45C93.5949 1080.05 78.6615 1076.52 63 1076.52V1077.52C78.5088 1077.52 93.2974 1081.02 106.787 1087.36L107.213 1086.45ZM151 1076.52C135.339 1076.52 120.405 1080.05 106.787 1086.45L107.213 1087.36C120.703 1081.02 135.491 1077.52 151 1077.52V1076.52ZM168.526 1078.02C162.81 1077.03 156.958 1076.52 151 1076.52V1077.52C156.9 1077.52 162.696 1078.03 168.356 1079L168.526 1078.02ZM266 1016.69C224.649 1016.69 188.4 1041.31 168.003 1078.27L168.878 1078.75C189.129 1042.05 225.07 1017.69 266 1017.69V1016.69ZM363.997 1078.27C343.6 1041.31 307.351 1016.69 266 1016.69V1017.69C306.93 1017.69 342.871 1042.05 363.122 1078.75L363.997 1078.27ZM381 1076.52C375.042 1076.52 369.19 1077.03 363.474 1078.02L363.644 1079C369.304 1078.03 375.1 1077.52 381 1077.52V1076.52ZM467.22 1120.31C446.077 1093.45 415.291 1076.52 381 1076.52V1077.52C414.946 1077.52 445.456 1094.28 466.434 1120.93L467.22 1120.31ZM508 1111.52C493.42 1111.52 479.471 1114.58 466.627 1120.16L467.026 1121.08C479.749 1115.55 493.562 1112.52 508 1112.52V1111.52ZM530.446 1113.99C523.185 1112.37 515.68 1111.52 508 1111.52V1112.52C515.606 1112.52 523.038 1113.36 530.228 1114.96L530.446 1113.99ZM611 1076.52C579.417 1076.52 550.805 1090.88 529.965 1114.14L530.709 1114.81C551.383 1091.74 579.733 1077.52 611 1077.52V1076.52ZM649.539 1083.98C637.487 1079.15 624.514 1076.52 611 1076.52V1077.52C624.383 1077.52 637.229 1080.12 649.167 1084.91L649.539 1083.98ZM750 1016.69C706.464 1016.69 668.585 1043.97 648.904 1084.23L649.803 1084.67C669.345 1044.7 706.908 1017.69 750 1017.69V1016.69ZM847.997 1078.27C827.6 1041.31 791.351 1016.69 750 1016.69V1017.69C790.93 1017.69 826.871 1042.05 847.122 1078.75L847.997 1078.27ZM862.824 1076.54C857.616 1076.65 852.492 1077.15 847.474 1078.02L847.644 1079C852.613 1078.15 857.687 1077.65 862.845 1077.54L862.824 1076.54ZM926.824 1052.83C902.903 1053.34 880.764 1062.08 862.522 1076.65L863.147 1077.43C881.23 1062.98 903.161 1054.33 926.845 1053.83L926.824 1052.83ZM990.824 1029.13C966.903 1029.63 944.764 1038.37 926.522 1052.94L927.147 1053.72C945.23 1039.28 967.161 1030.62 990.845 1030.13L990.824 1029.13ZM1057 1005.4C1032.25 1005.4 1009.32 1014.22 990.522 1029.24L991.147 1030.02C1009.78 1015.13 1032.49 1006.4 1057 1006.4V1005.4ZM1128.9 1033.85C1109.18 1016.04 1084.19 1005.4 1057 1005.4V1006.4C1083.92 1006.4 1108.68 1016.94 1128.23 1034.59L1128.9 1033.85ZM1159 1029.1C1148.41 1029.1 1138.16 1030.72 1128.42 1033.74L1128.72 1034.7C1138.36 1031.7 1148.52 1030.1 1159 1030.1V1029.1ZM1230.9 1057.55C1211.18 1039.75 1186.19 1029.1 1159 1029.1V1030.1C1185.92 1030.1 1210.68 1040.64 1230.23 1058.3L1230.9 1057.55ZM1261 1052.81C1250.41 1052.81 1240.16 1054.43 1230.42 1057.45L1230.72 1058.4C1240.36 1055.41 1250.52 1053.81 1261 1053.81V1052.81ZM1301 1060.87C1288.54 1055.66 1275.06 1052.81 1261 1052.81V1053.81C1274.93 1053.81 1288.27 1056.63 1300.61 1061.8L1301 1060.87ZM1301.16 1061.69C1321.24 1042 1347.4 1030.1 1376 1030.1V1029.1C1347.11 1029.1 1320.7 1041.12 1300.46 1060.98L1301.16 1061.69ZM1376 1030.1C1399.57 1030.1 1421.48 1038.18 1439.7 1052.04L1440.3 1051.25C1421.93 1037.27 1399.81 1029.1 1376 1029.1V1030.1ZM1439.5 0V1051.65H1440.5V0H1439.5Z" fill="black"/>
<defs>
<linearGradient id="paint0_linear" x1="766.5" y1="3354" x2="695.735" y2="0.174485" gradientUnits="userSpaceOnUse">
<stop stop-color="#F7F0D3"/>
<stop offset="1" stop-color="white" stop-opacity="0"/>
</linearGradient>
</defs>
</svg>
