<svg width="1440" height="302" viewBox="0 0 1440 302" fill="none" xmlns="http://www.w3.org/2000/svg">
<path fill-rule="evenodd" clip-rule="evenodd" d="M-1 288.764C41.2893 281.861 93.21 277.794 149.326 277.794C232.83 277.794 307.044 286.799 354.056 300.754C381.363 298.52 410.817 297.302 441.528 297.302C473.346 297.302 503.816 298.609 531.946 301C578.913 286.905 653.507 277.794 737.5 277.794C772.009 277.794 804.932 279.332 835.003 282.122C882.046 268.269 955.982 259.341 1039.13 259.341C1120.25 259.341 1192.61 267.84 1239.77 281.119C1266.64 278.966 1295.55 277.794 1325.67 277.794C1366.74 277.794 1405.56 279.972 1440 283.845V6.78873C1421.7 10.5261 1399.69 12.7065 1376 12.7065C1360.41 12.7065 1345.55 11.7627 1332 10.0527C1318.45 11.7627 1303.59 12.7065 1288 12.7065C1282.07 12.7065 1276.25 12.5699 1270.56 12.3065C1250.24 22.1942 1214.14 28.7705 1173 28.7705C1131.86 28.7705 1095.76 22.1942 1075.44 12.3065C1069.75 12.5699 1063.93 12.7065 1058 12.7065C1023.88 12.7065 993.234 8.18362 972.173 1C959.39 2.49258 945.509 3.31049 931 3.31049C923.357 3.31049 915.889 3.08356 908.663 2.65057C887.906 8.86951 859.425 12.7065 828 12.7065C814.551 12.7065 801.642 12.0037 789.647 10.7123C770.035 21.4811 732.314 28.7705 689 28.7705C647.859 28.7705 611.765 22.1942 591.441 12.3065C586.447 12.5378 581.348 12.6713 576.165 12.7004C558.003 16.5963 535.968 18.9316 512.165 19.0654C494.003 22.9614 471.968 25.2966 448.165 25.4304C429.453 29.4443 406.631 31.8015 382 31.8015C354.945 31.8015 330.072 28.9574 310.431 24.1977C300.738 25.0053 290.535 25.4365 280 25.4365C252.945 25.4365 228.072 22.5924 208.431 17.8327C198.738 18.6403 188.534 19.0715 178 19.0715C164.006 19.0715 150.596 18.3106 138.192 16.9174C118.031 22.2255 91.7476 25.4365 63 25.4365C39.3113 25.4365 17.2955 23.2561 -1 19.5187V288.764Z" fill="#C62027"/>
<path fill-rule="evenodd" clip-rule="evenodd" d="M-1 288.764C41.2893 281.861 93.21 277.794 149.326 277.794C232.83 277.794 307.044 286.799 354.056 300.754C381.363 298.52 410.817 297.302 441.528 297.302C473.346 297.302 503.816 298.609 531.946 301C578.913 286.905 653.507 277.794 737.5 277.794C772.009 277.794 804.932 279.332 835.003 282.122C882.046 268.269 955.982 259.341 1039.13 259.341C1120.25 259.341 1192.61 267.84 1239.77 281.119C1266.64 278.966 1295.55 277.794 1325.67 277.794C1366.74 277.794 1405.56 279.972 1440 283.845V6.78873C1421.7 10.5261 1399.69 12.7065 1376 12.7065C1360.41 12.7065 1345.55 11.7627 1332 10.0527C1318.45 11.7627 1303.59 12.7065 1288 12.7065C1282.07 12.7065 1276.25 12.5699 1270.56 12.3065C1250.24 22.1942 1214.14 28.7705 1173 28.7705C1131.86 28.7705 1095.76 22.1942 1075.44 12.3065C1069.75 12.5699 1063.93 12.7065 1058 12.7065C1023.88 12.7065 993.234 8.18362 972.173 1C959.39 2.49258 945.509 3.31049 931 3.31049C923.357 3.31049 915.889 3.08356 908.663 2.65057C887.906 8.86951 859.425 12.7065 828 12.7065C814.551 12.7065 801.642 12.0037 789.647 10.7123C770.035 21.4811 732.314 28.7705 689 28.7705C647.859 28.7705 611.765 22.1942 591.441 12.3065C586.447 12.5378 581.348 12.6713 576.165 12.7004C558.003 16.5963 535.968 18.9316 512.165 19.0654C494.003 22.9614 471.968 25.2966 448.165 25.4304C429.453 29.4443 406.631 31.8015 382 31.8015C354.945 31.8015 330.072 28.9574 310.431 24.1977C300.738 25.0053 290.535 25.4365 280 25.4365C252.945 25.4365 228.072 22.5924 208.431 17.8327C198.738 18.6403 188.534 19.0715 178 19.0715C164.006 19.0715 150.596 18.3106 138.192 16.9174C118.031 22.2255 91.7476 25.4365 63 25.4365C39.3113 25.4365 17.2955 23.2561 -1 19.5187V288.764Z" fill="url(#paint0_linear)"/>
<path d="M-1 288.764H-1.5V289.352L-0.919451 289.257L-1 288.764ZM354.056 300.754L353.914 301.234L354.004 301.26L354.097 301.253L354.056 300.754ZM531.946 301L531.904 301.498L531.999 301.506L532.09 301.479L531.946 301ZM835.003 282.122L834.957 282.62L835.053 282.628L835.144 282.601L835.003 282.122ZM1239.77 281.119L1239.64 281.601L1239.72 281.625L1239.81 281.618L1239.77 281.119ZM1440 283.845L1439.94 284.342L1440.5 284.405V283.845H1440ZM1440 6.78873H1440.5V6.17626L1439.9 6.29884L1440 6.78873ZM1332 10.0527L1332.06 9.55664L1332 9.54874L1331.94 9.55664L1332 10.0527ZM1270.56 12.3065L1270.58 11.807L1270.46 11.8011L1270.34 11.8569L1270.56 12.3065ZM1075.44 12.3065L1075.66 11.8569L1075.54 11.8011L1075.42 11.807L1075.44 12.3065ZM972.173 1L972.335 0.526771L972.227 0.490256L972.115 0.503374L972.173 1ZM908.663 2.65057L908.693 2.15147L908.605 2.14617L908.52 2.17161L908.663 2.65057ZM789.647 10.7123L789.7 10.2152L789.544 10.1984L789.406 10.274L789.647 10.7123ZM591.441 12.3065L591.659 11.8569L591.545 11.8011L591.417 11.807L591.441 12.3065ZM576.165 12.7004L576.163 12.2004L576.111 12.2007L576.06 12.2115L576.165 12.7004ZM512.165 19.0654L512.163 18.5654L512.111 18.5657L512.061 18.5765L512.165 19.0654ZM448.165 25.4304L448.163 24.9304L448.111 24.9307L448.061 24.9415L448.165 25.4304ZM310.431 24.1977L310.549 23.7118L310.47 23.6927L310.389 23.6994L310.431 24.1977ZM208.431 17.8327L208.549 17.3468L208.47 17.3277L208.389 17.3344L208.431 17.8327ZM138.192 16.9174L138.248 16.4205L138.155 16.4101L138.065 16.4338L138.192 16.9174ZM-1 19.5187L-0.899927 19.0289L-1.5 18.9063V19.5187H-1ZM149.326 277.294C93.1877 277.294 41.2396 281.362 -1.08055 288.27L-0.919451 289.257C41.339 282.359 93.2323 278.294 149.326 278.294V277.294ZM354.199 300.275C307.123 286.301 232.856 277.294 149.326 277.294V278.294C232.804 278.294 306.965 287.297 353.914 301.234L354.199 300.275ZM441.528 296.802C410.804 296.802 381.336 298.02 354.016 300.256L354.097 301.253C381.39 299.019 410.83 297.802 441.528 297.802V296.802ZM531.989 300.502C503.844 298.11 473.36 296.802 441.528 296.802V297.802C473.333 297.802 503.789 299.109 531.904 301.498L531.989 300.502ZM737.5 277.294C653.481 277.294 578.833 286.407 531.803 300.521L532.09 301.479C578.992 287.403 653.533 278.294 737.5 278.294V277.294ZM835.049 281.624C804.962 278.833 772.024 277.294 737.5 277.294V278.294C771.995 278.294 804.902 279.831 834.957 282.62L835.049 281.624ZM1039.13 258.841C955.956 258.841 881.968 267.771 834.862 281.642L835.144 282.601C882.124 268.767 956.007 259.841 1039.13 259.841V258.841ZM1239.91 280.638C1192.68 267.342 1120.28 258.841 1039.13 258.841V259.841C1120.22 259.841 1192.53 268.338 1239.64 281.601L1239.91 280.638ZM1239.81 281.618C1266.66 279.465 1295.56 278.294 1325.67 278.294V277.294C1295.54 277.294 1266.61 278.466 1239.73 280.621L1239.81 281.618ZM1325.67 278.294C1366.72 278.294 1405.52 280.471 1439.94 284.342L1440.06 283.348C1405.59 279.473 1366.76 277.294 1325.67 277.294V278.294ZM1439.5 6.78873V283.845H1440.5V6.78873H1439.5ZM1376 13.2065C1399.72 13.2065 1421.77 11.0236 1440.1 7.27861L1439.9 6.29884C1421.64 10.0286 1399.66 12.2065 1376 12.2065V13.2065ZM1331.94 10.5488C1345.51 12.2616 1360.4 13.2065 1376 13.2065V12.2065C1360.43 12.2065 1345.59 11.2639 1332.06 9.55664L1331.94 10.5488ZM1288 13.2065C1303.6 13.2065 1318.49 12.2616 1332.06 10.5488L1331.94 9.55664C1318.41 11.2639 1303.57 12.2065 1288 12.2065V13.2065ZM1270.54 12.806C1276.23 13.0697 1282.06 13.2065 1288 13.2065V12.2065C1282.08 12.2065 1276.26 12.0701 1270.58 11.807L1270.54 12.806ZM1173 29.2705C1214.17 29.2705 1250.36 22.6916 1270.78 12.7561L1270.34 11.8569C1250.11 21.6968 1214.11 28.2705 1173 28.2705V29.2705ZM1075.22 12.7561C1095.64 22.6916 1131.83 29.2705 1173 29.2705V28.2705C1131.89 28.2705 1095.89 21.6968 1075.66 11.8569L1075.22 12.7561ZM1058 13.2065C1063.94 13.2065 1069.77 13.0697 1075.46 12.806L1075.42 11.807C1069.74 12.0701 1063.92 12.2065 1058 12.2065V13.2065ZM972.012 1.47323C993.14 8.67979 1023.85 13.2065 1058 13.2065V12.2065C1023.92 12.2065 993.328 7.68746 972.335 0.526771L972.012 1.47323ZM931 3.81049C945.527 3.81049 959.428 2.99156 972.231 1.49663L972.115 0.503374C959.352 1.99361 945.49 2.81049 931 2.81049V3.81049ZM908.633 3.14968C915.869 3.58327 923.347 3.81049 931 3.81049V2.81049C923.367 2.81049 915.909 2.58385 908.693 2.15147L908.633 3.14968ZM828 13.2065C859.46 13.2065 887.991 9.36585 908.807 3.12954L908.52 2.17161C887.82 8.37317 859.39 12.2065 828 12.2065V13.2065ZM789.593 11.2094C801.607 12.5028 814.534 13.2065 828 13.2065V12.2065C814.569 12.2065 801.677 11.5046 789.7 10.2152L789.593 11.2094ZM689 29.2705C732.343 29.2705 770.165 21.9798 789.887 11.1506L789.406 10.274C769.904 20.9823 732.284 28.2705 689 28.2705V29.2705ZM591.222 12.7561C611.644 22.6916 647.826 29.2705 689 29.2705V28.2705C647.893 28.2705 611.885 21.6968 591.659 11.8569L591.222 12.7561ZM576.168 13.2004C581.358 13.1712 586.463 13.0375 591.464 12.806L591.417 11.807C586.431 12.038 581.339 12.1713 576.163 12.2004L576.168 13.2004ZM512.168 19.5654C536 19.4314 558.069 17.0935 576.27 13.1893L576.06 12.2115C557.936 16.0992 535.936 18.4318 512.163 18.5654L512.168 19.5654ZM448.168 25.9304C472 25.7964 494.069 23.4585 512.27 19.5543L512.061 18.5765C493.936 22.4643 471.936 24.7968 448.163 24.9304L448.168 25.9304ZM382 32.3015C406.661 32.3015 429.519 29.9416 448.27 25.9193L448.061 24.9415C429.388 28.9469 406.601 31.3015 382 31.3015V32.3015ZM310.313 24.6837C329.999 29.4543 354.913 32.3015 382 32.3015V31.3015C354.977 31.3015 330.144 28.4605 310.549 23.7118L310.313 24.6837ZM280 25.9365C290.548 25.9365 300.766 25.5047 310.472 24.696L310.389 23.6994C300.711 24.5058 290.521 24.9365 280 24.9365V25.9365ZM208.313 18.3186C227.999 23.0893 252.913 25.9365 280 25.9365V24.9365C252.977 24.9365 228.144 22.0954 208.549 17.3468L208.313 18.3186ZM178 19.5715C188.548 19.5715 198.766 19.1397 208.472 18.331L208.389 17.3344C198.711 18.1408 188.521 18.5715 178 18.5715V19.5715ZM138.136 17.4142C150.56 18.8097 163.989 19.5715 178 19.5715V18.5715C164.024 18.5715 150.633 17.8116 138.248 16.4205L138.136 17.4142ZM63 25.9365C91.7809 25.9365 118.109 22.7221 138.32 17.4009L138.065 16.4338C117.954 21.7288 91.7142 24.9365 63 24.9365V25.9365ZM-1.10007 20.0086C17.2328 23.7536 39.2824 25.9365 63 25.9365V24.9365C39.3401 24.9365 17.3583 22.7586 -0.899927 19.0289L-1.10007 20.0086ZM-0.5 288.764V19.5187H-1.5V288.764H-0.5Z" fill="black"/>
<defs>
<linearGradient id="paint0_linear" x1="729" y1="-825.676" x2="729.299" y2="301.89" gradientUnits="userSpaceOnUse">
<stop stop-color="#F7F0D3"/>
<stop offset="1" stop-color="white" stop-opacity="0"/>
</linearGradient>
</defs>
</svg>
