<svg width="1440" height="1024" viewBox="0 0 1440 1024" fill="none" xmlns="http://www.w3.org/2000/svg">
<path fill-rule="evenodd" clip-rule="evenodd" d="M1441 -13H0V1086.06C18.2955 1072.14 40.3113 1064.02 64 1064.02C79.5851 1064.02 94.4462 1067.53 108 1073.9C121.554 1067.53 136.415 1064.02 152 1064.02C157.929 1064.02 163.753 1064.53 169.441 1065.51C189.765 1028.68 225.859 1004.19 267 1004.19C308.141 1004.19 344.235 1028.68 364.559 1065.51C370.247 1064.53 376.071 1064.02 382 1064.02C416.118 1064.02 446.766 1080.87 467.827 1107.62C480.61 1102.06 494.491 1099.02 509 1099.02C516.643 1099.02 524.111 1099.86 531.337 1101.48C552.094 1078.31 580.575 1064.02 612 1064.02C625.449 1064.02 638.358 1066.64 650.353 1071.45C669.965 1031.34 707.686 1004.19 751 1004.19C792.141 1004.19 828.235 1028.68 848.559 1065.51C853.553 1064.65 858.652 1064.15 863.834 1064.04C881.997 1049.53 904.032 1040.83 927.835 1040.33C945.997 1025.82 968.032 1017.12 991.835 1016.63C1010.55 1001.68 1033.37 992.896 1058 992.896C1085.06 992.896 1109.93 1003.49 1129.57 1021.22C1139.26 1018.21 1149.47 1016.6 1160 1016.6C1187.06 1016.6 1211.93 1027.2 1231.57 1044.93C1241.26 1041.92 1251.47 1040.31 1262 1040.31C1275.99 1040.31 1289.4 1043.15 1301.81 1048.33C1321.97 1028.56 1348.25 1016.6 1377 1016.6C1400.69 1016.6 1422.7 1024.72 1441 1038.65V-13Z" fill="#C62027"/>
<path fill-rule="evenodd" clip-rule="evenodd" d="M1441 -13H0V1086.06C18.2955 1072.14 40.3113 1064.02 64 1064.02C79.5851 1064.02 94.4462 1067.53 108 1073.9C121.554 1067.53 136.415 1064.02 152 1064.02C157.929 1064.02 163.753 1064.53 169.441 1065.51C189.765 1028.68 225.859 1004.19 267 1004.19C308.141 1004.19 344.235 1028.68 364.559 1065.51C370.247 1064.53 376.071 1064.02 382 1064.02C416.118 1064.02 446.766 1080.87 467.827 1107.62C480.61 1102.06 494.491 1099.02 509 1099.02C516.643 1099.02 524.111 1099.86 531.337 1101.48C552.094 1078.31 580.575 1064.02 612 1064.02C625.449 1064.02 638.358 1066.64 650.353 1071.45C669.965 1031.34 707.686 1004.19 751 1004.19C792.141 1004.19 828.235 1028.68 848.559 1065.51C853.553 1064.65 858.652 1064.15 863.834 1064.04C881.997 1049.53 904.032 1040.83 927.835 1040.33C945.997 1025.82 968.032 1017.12 991.835 1016.63C1010.55 1001.68 1033.37 992.896 1058 992.896C1085.06 992.896 1109.93 1003.49 1129.57 1021.22C1139.26 1018.21 1149.47 1016.6 1160 1016.6C1187.06 1016.6 1211.93 1027.2 1231.57 1044.93C1241.26 1041.92 1251.47 1040.31 1262 1040.31C1275.99 1040.31 1289.4 1043.15 1301.81 1048.33C1321.97 1028.56 1348.25 1016.6 1377 1016.6C1400.69 1016.6 1422.7 1024.72 1441 1038.65V-13Z" fill="url(#paint0_linear)"/>
<path d="M0 -13V-13.5H-0.5V-13H0ZM1441 -13H1441.5V-13.5H1441V-13ZM0 1086.06H-0.5V1087.07L0.302765 1086.46L0 1086.06ZM108 1073.9L107.787 1074.36L108 1074.46L108.213 1074.36L108 1073.9ZM169.441 1065.51L169.356 1066L169.706 1066.06L169.878 1065.75L169.441 1065.51ZM364.559 1065.51L364.122 1065.75L364.294 1066.06L364.644 1066L364.559 1065.51ZM467.827 1107.62L467.434 1107.93L467.673 1108.24L468.026 1108.08L467.827 1107.62ZM531.337 1101.48L531.228 1101.96L531.514 1102.03L531.709 1101.81L531.337 1101.48ZM650.353 1071.45L650.167 1071.91L650.599 1072.08L650.803 1071.67L650.353 1071.45ZM848.559 1065.51L848.122 1065.75L848.294 1066.06L848.644 1066L848.559 1065.51ZM863.834 1064.04L863.845 1064.54L864.014 1064.54L864.147 1064.43L863.834 1064.04ZM927.835 1040.33L927.845 1040.83L928.014 1040.83L928.147 1040.72L927.835 1040.33ZM991.835 1016.63L991.845 1017.13L992.014 1017.12L992.147 1017.02L991.835 1016.63ZM1129.57 1021.22L1129.23 1021.59L1129.45 1021.78L1129.72 1021.7L1129.57 1021.22ZM1231.57 1044.93L1231.23 1045.3L1231.45 1045.49L1231.72 1045.4L1231.57 1044.93ZM1301.81 1048.33L1301.61 1048.8L1301.92 1048.92L1302.16 1048.69L1301.81 1048.33ZM1441 1038.65L1440.7 1039.04L1441.5 1039.65V1038.65H1441ZM0 -12.5H1441V-13.5H0V-12.5ZM0.5 1086.06V-13H-0.5V1086.06H0.5ZM64 1063.52C40.1936 1063.52 18.0729 1071.68 -0.302765 1085.66L0.302765 1086.46C18.5181 1072.6 40.429 1064.52 64 1064.52V1063.52ZM108.213 1073.45C94.5949 1067.05 79.6615 1063.52 64 1063.52V1064.52C79.5088 1064.52 94.2974 1068.02 107.787 1074.36L108.213 1073.45ZM152 1063.52C136.339 1063.52 121.405 1067.05 107.787 1073.45L108.213 1074.36C121.703 1068.02 136.491 1064.52 152 1064.52V1063.52ZM169.526 1065.02C163.81 1064.03 157.958 1063.52 152 1063.52V1064.52C157.9 1064.52 163.696 1065.03 169.356 1066L169.526 1065.02ZM267 1003.69C225.649 1003.69 189.4 1028.31 169.003 1065.27L169.878 1065.75C190.129 1029.05 226.07 1004.69 267 1004.69V1003.69ZM364.997 1065.27C344.6 1028.31 308.351 1003.69 267 1003.69V1004.69C307.93 1004.69 343.871 1029.05 364.122 1065.75L364.997 1065.27ZM382 1063.52C376.042 1063.52 370.19 1064.03 364.474 1065.02L364.644 1066C370.304 1065.03 376.1 1064.52 382 1064.52V1063.52ZM468.22 1107.31C447.077 1080.45 416.291 1063.52 382 1063.52V1064.52C415.946 1064.52 446.456 1081.28 467.434 1107.93L468.22 1107.31ZM509 1098.52C494.42 1098.52 480.471 1101.58 467.627 1107.16L468.026 1108.08C480.749 1102.55 494.562 1099.52 509 1099.52V1098.52ZM531.446 1100.99C524.185 1099.37 516.68 1098.52 509 1098.52V1099.52C516.606 1099.52 524.038 1100.36 531.228 1101.96L531.446 1100.99ZM612 1063.52C580.417 1063.52 551.805 1077.88 530.965 1101.14L531.709 1101.81C552.383 1078.74 580.733 1064.52 612 1064.52V1063.52ZM650.539 1070.98C638.487 1066.15 625.514 1063.52 612 1063.52V1064.52C625.383 1064.52 638.229 1067.12 650.167 1071.91L650.539 1070.98ZM751 1003.69C707.464 1003.69 669.585 1030.97 649.904 1071.23L650.803 1071.67C670.345 1031.7 707.908 1004.69 751 1004.69V1003.69ZM848.997 1065.27C828.6 1028.31 792.351 1003.69 751 1003.69V1004.69C791.93 1004.69 827.871 1029.05 848.122 1065.75L848.997 1065.27ZM863.824 1063.54C858.616 1063.65 853.492 1064.15 848.474 1065.02L848.644 1066C853.613 1065.15 858.687 1064.65 863.845 1064.54L863.824 1063.54ZM927.824 1039.83C903.903 1040.34 881.764 1049.08 863.522 1063.65L864.147 1064.43C882.23 1049.98 904.161 1041.33 927.845 1040.83L927.824 1039.83ZM991.824 1016.13C967.903 1016.63 945.764 1025.37 927.522 1039.94L928.147 1040.72C946.23 1026.28 968.161 1017.62 991.845 1017.13L991.824 1016.13ZM1058 992.396C1033.25 992.396 1010.32 1001.22 991.522 1016.24L992.147 1017.02C1010.78 1002.13 1033.49 993.396 1058 993.396V992.396ZM1129.9 1020.85C1110.18 1003.04 1085.19 992.396 1058 992.396V993.396C1084.92 993.396 1109.68 1003.94 1129.23 1021.59L1129.9 1020.85ZM1160 1016.1C1149.41 1016.1 1139.16 1017.72 1129.42 1020.74L1129.72 1021.7C1139.36 1018.7 1149.52 1017.1 1160 1017.1V1016.1ZM1231.9 1044.55C1212.18 1026.75 1187.19 1016.1 1160 1016.1V1017.1C1186.92 1017.1 1211.68 1027.64 1231.23 1045.3L1231.9 1044.55ZM1262 1039.81C1251.41 1039.81 1241.16 1041.43 1231.42 1044.45L1231.72 1045.4C1241.36 1042.41 1251.52 1040.81 1262 1040.81V1039.81ZM1302 1047.87C1289.54 1042.66 1276.06 1039.81 1262 1039.81V1040.81C1275.93 1040.81 1289.27 1043.63 1301.61 1048.8L1302 1047.87ZM1302.16 1048.69C1322.24 1029 1348.4 1017.1 1377 1017.1V1016.1C1348.11 1016.1 1321.7 1028.12 1301.46 1047.98L1302.16 1048.69ZM1377 1017.1C1400.57 1017.1 1422.48 1025.18 1440.7 1039.04L1441.3 1038.25C1422.93 1024.27 1400.81 1016.1 1377 1016.1V1017.1ZM1440.5 -13V1038.65H1441.5V-13H1440.5Z" fill="black"/>
<defs>
<linearGradient id="paint0_linear" x1="720" y1="1657.85" x2="700.883" y2="-12.9529" gradientUnits="userSpaceOnUse">
<stop stop-color="#F7F0D3"/>
<stop offset="1" stop-color="white" stop-opacity="0"/>
</linearGradient>
</defs>
</svg>
